<?xml version="1.0" encoding="utf-8"?>
<!-- Generator: Adobe Illustrator 15.1.0, SVG Export Plug-In . SVG Version: 6.00 Build 0)  -->
<!DOCTYPE svg PUBLIC "-//W3C//DTD SVG 1.1//EN" "http://www.w3.org/Graphics/SVG/1.1/DTD/svg11.dtd">
<svg version="1.1" id="レイヤー_1" xmlns="http://www.w3.org/2000/svg" xmlns:xlink="http://www.w3.org/1999/xlink" x="0px"
	 y="0px" width="300.473px" height="97.582px" viewBox="27.762 4.399 300.473 97.582"
	 enable-background="new 27.762 4.399 300.473 97.582" xml:space="preserve">
<g>
	<g>
		<path fill="#231815" d="M206.293,86.312c0.409,0.108,0.753,0.185,1.035,0.185c0.595,0,1.002-0.257,1.564-0.654
			c1.661-1.238,4.04-3.127,5.421-4.183c0.812-0.616,1.503-0.764,2.004-0.764s0.972,0.108,1.975,0.764
			c3.725,2.437,6.891,4.546,9.646,6.363c1.473,0.979,3.354,1.926,4.011,2.326c1.065,0.653,1.753,2.071,1.753,3.198
			c0,1.49-0.407,2.146-1.722,2.146c-0.596,0-1.504-0.653-1.974-1.056c-4.512-3.854-8.364-7.018-12.594-10.36
			c-0.594-0.474-1.095-0.653-1.378-0.653s-0.752,0.182-1.41,0.944c-1.473,1.709-2.382,2.836-2.976,3.638
			c-0.378,0.508-0.69,1.018-0.94,1.418c-0.251,0.397-0.502,0.545-0.813,0.545c-0.377,0-0.628-0.037-1.254-0.474
			c-1.097-0.765-1.88-1.672-2.537-2.981L206.293,86.312z M229.571,77.297c0,1.817-1.254,3.309-2.853,3.309
			c-1.565,0-2.853-1.49-2.853-3.309c0-1.854,1.286-3.31,2.853-3.31C228.317,73.987,229.571,75.442,229.571,77.297z M224.902,77.297
			c0,1.164,0.814,2.108,1.816,2.108c1.003,0,1.816-0.944,1.816-2.108s-0.813-2.107-1.816-2.107
			C225.716,75.187,224.902,76.131,224.902,77.297z"/>
		<path fill="#231815" d="M234.711,74.422c1.033,0.767,1.786,1.021,2.759,1.021c1.91,0,9.521-0.619,14.19-1.092
			c1.471-0.146,2.223-0.326,2.694-0.617c0.281-0.185,0.658-0.474,1.063-0.474s1.16,0.437,2.35,1.673
			c1.286,1.346,1.693,2.034,1.693,2.616c0,0.836-0.534,1.164-1.286,1.273c-0.626,0.074-1.158,0.219-2.065,0.801
			c-2.193,1.381-4.416,2.689-6.703,3.889c-1.222,7.89-3.321,14.615-10.589,18.47l-0.28-0.511c4.573-4.581,6.767-10.688,7.393-19.014
			c0.03-0.291,0.03-0.582,0.03-0.799c0-0.475-0.063-0.766-0.251-0.947c-0.343-0.326-0.75-0.617-1.66-0.908v-0.582
			c0.722-0.219,1.38-0.256,1.849-0.256c0.502,0,1.661,0.328,2.163,0.584c0.813,0.437,1.378,0.873,1.629,1.162
			c0.187,0.219,0.251,0.438,0.251,0.582c0,0.074-0.032,0.109-0.032,0.146c-0.063,0.219-0.125,0.363-0.125,0.51
			c1.409-1.273,2.663-2.799,4.136-4.98c0.061-0.108,0.092-0.182,0.092-0.291c0-0.145-0.092-0.254-0.282-0.254
			c-5.137,0.437-8.895,0.945-11.936,1.49c-1.849,0.328-2.601,0.51-2.911,0.691c-0.564,0.291-0.91,0.398-1.13,0.398
			c-0.659,0-1.411-0.689-2.413-2.146c-0.532-0.801-0.846-1.347-1.003-2.146L234.711,74.422z"/>
		<path fill="#231815" d="M259.213,83.694c0.879,1.199,1.315,1.383,2.348,1.383c4.432,0,9.98-0.618,10.396-0.618
			c1.514,0,2.412-0.474,2.698-0.474c0.459,0,1.206,0.291,1.624,0.545c0.549,0.328,0.963,0.873,0.963,1.709
			c0,1.201-0.504,1.709-1.819,1.709c-1.03,0-2.062,0.037-3.092,0.037c-2.392,0-6.01,0.217-9.278,0.545
			c-0.374,0.035-0.769,0.218-0.966,0.363s-0.416,0.437-0.766,0.437c-0.418,0-1.098-0.765-1.646-2.107
			c-0.481-1.164-0.68-2.146-0.811-3.271L259.213,83.694z"/>
		<path fill="#231815" d="M285.782,80.823c0.313-0.073,0.626-0.073,0.909-0.073c0.251,0,0.47,0,0.658,0.036
			c0.501,0.072,0.971,0.146,2.538,1.345c1.095,0.801,1.722,1.854,1.722,2.582c0,0.653-0.188,0.944-0.532,1.164
			c-0.439,0.291-0.752,0.653-1.003,0.944c-3.915,4.765-7.58,7.381-12.405,9.019l-0.28-0.619c4.167-2.836,7.08-6.326,9.365-10.035
			c0.501-0.799,0.628-1.234,0.628-1.854c0-0.438-0.438-1.31-1.631-1.892L285.782,80.823z M294.333,79.95
			c4.604,1.525,7.832,4.146,9.491,6.979c0.69,1.164,1.096,2.146,1.067,3.602c-0.032,1.381-0.847,2.289-2.068,2.289
			c-0.534,0-1.254-0.654-1.786-2.035c-1.691-4.326-3.979-7.818-6.984-10.254L294.333,79.95z M304.86,76.17
			c0,1.817-1.254,3.309-2.853,3.309c-1.565,0-2.852-1.49-2.852-3.309c0-1.854,1.284-3.31,2.852-3.31
			C303.606,72.86,304.86,74.315,304.86,76.17z M300.192,76.17c0,1.164,0.814,2.106,1.815,2.106c1.003,0,1.816-0.942,1.816-2.106
			s-0.813-2.109-1.816-2.109C301.006,74.06,300.192,75.006,300.192,76.17z"/>
		<path fill="#231815" d="M322,72.207c0.563-0.146,1.129-0.255,1.691-0.255c0.502,0,0.971,0.072,1.411,0.255
			c1.815,0.69,3.132,1.817,3.132,3.053c0,0.69-0.376,1.02-0.627,1.235c-0.439,0.4-0.813,0.691-1.347,1.382
			c-1.252,1.6-2.1,2.69-3.383,4.182c1.032,0.654,1.315,1.346,1.315,2c0,0.254-0.032,0.836-0.032,1.416c0,1.855,0,4.219,0.032,6.654
			c0.03,2.981,0.125,5.309,0.125,7.125c0,1.854-0.563,2.399-1.598,2.399c-0.909,0-2.037-1.235-2.037-4.106
			c0-0.365,0.127-1.056,0.22-1.529c0.062-0.436,0.126-1.197,0.159-2.326c0.062-1.891,0.062-4.834,0.062-6.652
			c0-1.418-0.032-2.182-0.094-2.981c-4.197,4.545-7.925,7.489-12.5,9.635l-0.281-0.545c3.948-3.056,7.019-6.543,10.087-10.324
			c1.912-2.362,3.917-5.198,5.139-7.31c0.25-0.436,0.408-0.872,0.408-1.163c0-0.361-0.533-1.054-1.911-1.453L322,72.207z"/>
	</g>
	<g>
		<path fill="#040000" d="M164.874,11.278c0.28,0.163,1.683,0.967,2.099,0.479c0.614-0.775,0.645-0.742,1.249-1.526
			c0.606-0.783,0.537-0.854,1.143-1.638c0.604-0.782,0.641-0.744,1.245-1.526l-0.097-0.12c0.281-0.324-1.277-1.38-1.418-1.542
			c-0.415-0.16-1.94-1.375-2.354-0.894c-0.612,0.75-0.32,1.068-0.925,1.824c-0.606,0.758-0.717,0.639-1.323,1.396
			c-0.604,0.755-0.663,0.694-1.244,1.474C162.967,9.692,164.735,11.117,164.874,11.278z"/>
		<path fill="#040000" d="M263.969,11.125c0.279,0.164,1.796,1.34,2.215,0.852c0.614-0.774,0.323-1.082,0.93-1.865
			c0.604-0.783,0.895-0.48,1.501-1.263c0.604-0.782,0.286-1.114,0.89-1.896l0.143,0.146c0.277-0.325-1.348-1.677-1.487-1.839
			c-0.418-0.159-1.813-1.02-2.231-0.536c-0.61,0.75-0.624,0.735-1.229,1.491c-0.604,0.756-0.519,0.852-1.123,1.607
			c-0.604,0.755-0.789,0.563-1.37,1.342C261.931,9.651,263.829,10.965,263.969,11.125z"/>
		<path fill="#040000" d="M293.817,40.047c-0.567-0.045-1.195-0.121-1.776-0.09c-0.775,0.041-1.506,0.025-1.776,0.287
			c-0.47,0.418-0.937,0.877-1.435,1.32c-0.475,0.422-0.998,0.795-1.494,1.232c-0.481,0.422-0.947,0.885-1.447,1.313
			c-0.486,0.418-1.031,0.753-1.533,1.169c-0.495,0.411-0.971,0.856-1.479,1.257c-0.505,0.399-0.898,0.998-1.413,1.383
			c-0.518,0.383-1.048,0.744-1.572,1.106c-0.526,0.364-1.012,0.827-1.547,1.163c-0.542,0.34-1.203,0.402-1.752,0.706
			c-0.556,0.309-1.15,0.481-1.71,0.745c-0.573,0.27-1.083,0.701-1.657,0.916c-0.593,0.219-1.18,0.414-1.771,0.566
			c-0.604,0.155-1.224,0.092-1.824,0.168c-0.614,0.076-1.21,0.418-1.816,0.399c-0.614-0.019-1.215-0.245-1.817-0.37
			c-0.597-0.125-1.213-0.25-1.797-0.488c-0.37-0.645-0.732-1.287-0.928-1.951c-0.208-0.709-0.175-1.474-0.221-2.193
			c-0.043-0.729-0.052-1.458,0.034-2.188c0.082-0.721,0.103-1.477,0.276-2.186c0.173-0.704,0.577-1.303,0.801-1.986
			c0.037-0.07,0.04,0.133,0.107,0.107c0.574-0.283,1.136-0.609,1.719-0.855c0.584-0.246,1.173-0.461,1.765-0.677
			c0.594-0.216,1.199-0.368,1.798-0.56c0.599-0.19,1.122-0.717,1.727-0.889c0.603-0.173,1.249-0.15,1.854-0.311
			c0.606-0.161,1.191-0.428,1.801-0.582c0.607-0.154,1.205-0.361,1.814-0.516c0.605-0.154,1.224-0.252,1.831-0.414
			c0.545-0.139,1.138-0.144,1.718-0.287c0.558-0.137,1.135-0.238,1.698-0.406c0.561-0.167,1.109-0.406,1.649-0.628
			c0.551-0.228,1.14-0.375,1.643-0.687c0.515-0.317,0.961-0.785,1.398-1.219c0.435-0.43,0.663-1.063,0.991-1.634
			c0.381-0.666,0.691-1.214,0.782-1.828c0.105-0.726,0.158-1.442-0.059-2.089c-0.207-0.625-0.598-1.208-1.023-1.752
			c-0.39-0.499-0.942-0.835-1.443-1.262c-0.473-0.393-0.909-0.812-1.409-1.104c-0.513-0.302-1.02-0.619-1.555-0.819
			c-0.544-0.203-1.114-0.291-1.673-0.396c-0.562-0.104-1.126-0.271-1.696-0.281c-0.565-0.01-1.123,0.243-1.691,0.323
			c-0.559,0.079-1.147,0.011-1.703,0.172c-0.601,0.161-1.151,0.57-1.757,0.816c-0.584,0.238-1.203,0.399-1.784,0.711
			c-0.565,0.301-1.22,0.437-1.777,0.8c-0.545,0.354-0.919,1.049-1.45,1.457c-0.521,0.401-1.057,0.778-1.56,1.228
			c-0.498,0.442-1.097,0.748-1.571,1.232c-0.474,0.482-0.939,0.988-1.383,1.506c-0.445,0.52-0.707,1.232-1.119,1.783
			c-0.413,0.557-0.839,1.086-1.21,1.669c-0.379,0.593-0.776,1.157-1.104,1.772c-0.338,0.627-0.68,1.241-0.959,1.887
			c-0.286,0.662-0.517,1.343-0.733,2.017c-0.071,0.216-0.125,0.435-0.174,0.655c-0.323,0.222-0.653,0.443-0.951,0.723
			c-0.486,0.459-0.789,1.202-1.28,1.688c-0.484,0.476-1.044,0.859-1.528,1.348c-0.482,0.484-0.968,0.973-1.445,1.457
			c-0.486,0.491-1.03,0.893-1.508,1.37c-0.492,0.491-0.928,1.038-1.405,1.501c-0.505,0.486-1.082,0.832-1.567,1.273
			c-0.523,0.477-0.875,1.166-1.371,1.57c-0.558,0.454-1.111,0.846-1.626,1.182c-0.619,0.402-1.245,0.604-1.785,0.789
			c-0.705,0.241-1.368,0.36-1.91,0.135c-0.153-0.535,0.015-1.201,0.154-1.881c0.12-0.582,0.125-1.266,0.345-1.855
			c0.226-0.602,0.539-1.157,0.763-1.674c0.266-0.616,0.654-1.155,0.949-1.756c0.293-0.598,0.414-1.32,0.732-1.906
			c0.314-0.583,0.842-1.01,1.176-1.582c0.336-0.568,0.627-1.172,0.973-1.732c0.349-0.56,0.679-1.135,1.037-1.687
			c0.356-0.552,0.617-1.19,0.983-1.737c0.364-0.546,0.887-0.947,1.253-1.492c0.366-0.543,0.727-1.093,1.09-1.636
			c0.393-0.552,0.699-1.183,1.09-1.737c0.391-0.553,0.733-1.15,1.121-1.707c0.385-0.558,0.964-0.938,1.346-1.5
			c0.381-0.563,0.781-1.11,1.155-1.682c0.371-0.568,0.498-1.352,0.859-1.932c0.218-0.379-0.354-0.706-1.189-1.219
			c-0.525-0.323-1.081-0.771-1.658-1.01c-0.853-0.354-1.531-0.404-1.733-0.287c-0.512,0.33-1.047,0.652-1.588,1.021
			c-0.512,0.346-1.03,0.705-1.563,1.082c-0.509,0.36-1.019,0.748-1.541,1.133c-0.507,0.372-1.024,0.738-1.542,1.13
			c-0.503,0.383-0.971,0.84-1.479,1.24c-0.501,0.395-1.089,0.648-1.589,1.055c-0.498,0.403-1.06,0.705-1.557,1.119
			c-0.493,0.413-0.972,0.854-1.458,1.273c-0.487,0.425-0.98,0.842-1.456,1.271c-0.485,0.436-0.99,0.834-1.459,1.273
			c-0.479,0.447-0.952,0.893-1.412,1.343c-0.472,0.462-0.947,0.909-1.39,1.369c-0.464,0.479-0.726,1.19-1.158,1.665
			c-0.452,0.498-1.116,0.722-1.527,1.212c-0.063,0.073,0.077,0.196,0.319,0.333c-0.055,0.052-0.109,0.102-0.162,0.154
			c-0.473,0.494-1.079,0.783-1.524,1.261c-0.459,0.496-0.95,0.934-1.399,1.407c-0.465,0.486-1.014,0.836-1.488,1.289
			c-0.478,0.457-0.944,0.906-1.456,1.321c-0.499,0.406-0.879,1.05-1.432,1.408c-0.522,0.34-1.042,0.796-1.633,1.087
			c-0.548,0.27-1.01,0.105-1.629,0.326c0.49-0.486,0.557-1.061,1.003-1.564c0.46-0.524,1.138-0.783,1.547-1.322
			c0.429-0.564,0.766-1.198,1.135-1.773c0.388-0.602,0.534-1.359,0.861-1.969c0.341-0.639,0.921-1.094,1.198-1.734
			c0.289-0.674,0.337-1.447,0.552-2.117c0.229-0.705,0.886-1.25,1.033-1.942c0.156-0.732,0.032-1.536,0.102-2.244
			c0.073-0.751-0.165-1.488-0.19-2.201c-0.023-0.755-0.146-1.437-0.274-2.135c-0.138-0.734-0.137-1.476-0.389-2.132
			c-0.261-0.68-0.528-1.348-0.909-1.928c-0.38-0.582-0.652-1.369-1.15-1.834c-0.484-0.447-1.137-0.744-1.728-1.064
			c-0.566-0.311-1.31-0.032-1.875-0.245c-0.594-0.226-1.084-0.763-1.669-0.892c-0.614-0.137-1.2-0.604-1.791-0.647
			c-0.626-0.047-1.271,0.065-1.863,0.104c-0.627,0.039-1.18,0.674-1.761,0.789c-0.627,0.125-1.312-0.188-1.871,0
			c-0.624,0.211-1.037,0.942-1.558,1.201c-0.586,0.321-1.202,0.356-1.663,0.633c-0.604,0.365-1.198,0.506-1.606,0.797
			c-0.686,0.488-0.975,1.056-1.246,1.371c0.151-0.949-0.06-1.027,0.196-1.945c0.259-0.918,0.381-0.871,0.64-1.788
			c0.256-0.917,0.666-0.742,0.962-1.642c0.147-0.174-0.571-1.438-1.261-2.062c-0.6-0.542-1.506-0.69-1.896-0.239
			c-0.406,0.424-0.886,0.836-1.363,1.33c-0.419,0.436-0.799,0.983-1.27,1.467c-0.428,0.441-1.034,0.693-1.498,1.172
			c-0.433,0.445-0.854,0.938-1.313,1.414c-0.437,0.449-0.706,1.143-1.164,1.617c-0.438,0.452-0.7,1.152-1.152,1.625
			c-0.438,0.455-1.109,0.625-1.561,1.096c-0.438,0.459-0.882,0.923-1.331,1.396c-0.438,0.462-0.633,1.241-1.077,1.714
			c-0.438,0.465-1.233,0.486-1.676,0.961c-0.437,0.469-0.784,1.053-1.226,1.527c-0.435,0.471-0.861,0.956-1.298,1.434
			c-0.434,0.475-0.936,0.867-1.368,1.346c-0.433,0.479-0.824,1.009-1.255,1.49c-0.281,0.315-0.637,0.563-0.968,0.83
			c-0.241,0.034-0.46,0.092-0.598,0.199c-0.412,0.438-0.775,1.031-1.243,1.577c-0.413,0.481-1.001,0.819-1.446,1.358
			c-0.413,0.502-0.649,1.233-1.082,1.766c-0.417,0.514-1.047,0.813-1.475,1.337c-0.422,0.519-0.682,1.226-1.108,1.737
			c-0.433,0.52-1.01,0.867-1.439,1.361c-0.448,0.519-0.894,1.012-1.329,1.482c-0.475,0.51-0.868,1.07-1.316,1.499
			c-0.519,0.494-1.092,0.785-1.56,1.133c-0.611,0.454-1.105,0.851-1.601,0.976c-0.685,0.175-1.326,0.076-1.705-0.586
			c0.078-0.679,0.416-1.348,0.554-2.02c0.135-0.665,0.286-1.316,0.475-1.973c0.183-0.649,0.257-1.346,0.485-1.985
			c0.228-0.631,0.51-1.237,0.772-1.858c0.259-0.615,0.628-1.164,0.917-1.768c0.289-0.6,0.402-1.318,0.713-1.906
			c0.312-0.585,0.633-1.168,0.963-1.74c0.33-0.573,0.775-1.055,1.119-1.613c0.345-0.563,0.557-1.237,0.909-1.785
			c0.358-0.555,0.796-1.035,1.156-1.573c0.367-0.549,0.701-1.12,1.063-1.651c0.374-0.547,0.901-0.938,1.266-1.463
			c0.377-0.547,0.738-1.094,1.097-1.617c0.216-0.334-0.533-1.242-1.353-1.818c-0.766-0.539-1.696-0.887-1.964-0.732
			c-0.7,0.484-1.453,0.998-2.148,1.16c0.074-0.605,0.045-1.326-0.161-1.906c-0.18-0.508-0.515-0.91-0.968-1.362
			c-0.328-0.38-0.707-1.068-1.346-1.479c-0.514-0.33-1.146-0.543-1.734-0.793c-0.605-0.259-1.224-0.516-1.787-0.592
			c-0.715-0.096-1.398,0.033-1.819,0.41c-0.403,0.359-0.547,1.038-0.456,2.009c0.127,0.647,0.306,1.287,0.567,1.87
			c0.274,0.609,0.526,1.256,0.892,1.723c0.424,0.541,1.111,0.864,1.577,1.105c-0.443,0.531-0.988,1.074-1.43,1.545
			c-0.466,0.498-0.977,0.907-1.443,1.352c-0.485,0.465-0.941,0.947-1.425,1.371c-0.5,0.438-1.037,0.795-1.535,1.207
			c-0.503,0.418-1.011,0.823-1.513,1.235c-0.503,0.413-0.926,0.954-1.425,1.38c-0.493,0.421-1.107,0.667-1.597,1.119
			c-0.475,0.438-0.964,0.875-1.438,1.359c-0.069,0.056,0.002,0.158,0.153,0.275c-0.314,0.32-0.628,0.652-0.963,0.967
			c-0.487,0.459-0.902,1.037-1.395,1.521c-0.483,0.477-1.06,0.833-1.545,1.32c-0.483,0.485-1.087,0.811-1.567,1.295
			c-0.485,0.49-0.885,1.084-1.365,1.563c-0.489,0.491-0.828,1.178-1.308,1.643c-0.503,0.488-1.167,0.718-1.655,1.16
			c-0.523,0.476-0.942,1.069-1.438,1.474c-0.558,0.454-1.134,0.807-1.649,1.142c-0.62,0.402-1.205,0.746-1.747,0.932
			c-0.705,0.242-1.437,0.276-1.979,0.052c-0.152-0.535-0.094-1.288,0.045-1.968c0.12-0.584,0.517-1.103,0.737-1.692
			c0.224-0.603,0.244-1.31,0.466-1.825c0.267-0.615,0.519-1.25,0.812-1.852c0.294-0.598,0.524-1.252,0.843-1.838
			c0.314-0.584,0.775-1.065,1.112-1.637c0.333-0.57,0.697-1.119,1.045-1.681c0.346-0.56,0.651-1.16,1.01-1.712
			c0.356-0.551,0.729-1.094,1.094-1.641c0.363-0.545,0.844-0.986,1.208-1.53c0.367-0.544,0.758-1.063,1.123-1.607
			c0.39-0.552,0.722-1.159,1.112-1.713c0.39-0.554,0.651-1.229,1.037-1.787c0.387-0.557,1.02-0.887,1.398-1.45
			c0.38-0.563,0.459-1.395,0.833-1.966c0.373-0.569,1.065-0.866,1.427-1.446c0.219-0.381-0.594-0.905-1.432-1.42
			c-0.523-0.321-1.027-0.937-1.604-1.176c-0.853-0.353-1.727-0.549-1.928-0.432c-0.51,0.329-0.969,0.827-1.511,1.193
			c-0.51,0.347-1.139,0.502-1.671,0.879c-0.51,0.361-0.958,0.871-1.484,1.256c-0.507,0.371-0.902,0.961-1.418,1.354
			c-0.503,0.383-1.202,0.445-1.709,0.846c-0.5,0.393-0.998,0.809-1.5,1.215c-0.498,0.404-0.877,1.008-1.37,1.422
			c-0.495,0.414-1.021,0.779-1.505,1.201c-0.489,0.425-1.066,0.713-1.545,1.144c-0.485,0.435-0.766,1.161-1.237,1.601
			c-0.477,0.447-0.941,0.897-1.398,1.348c-0.471,0.462-1.052,0.76-1.498,1.22c-0.427,0.443-0.701,1.06-1.079,1.526
			c-0.197,0.102-0.371,0.217-0.492,0.357c-0.227,0.243-0.441,0.516-0.658,0.793c-0.113,0.109-0.233,0.213-0.335,0.332
			c-0.02,0.025-0.018,0.049-0.001,0.073c-0.108,0.134-0.21,0.269-0.327,0.396c-0.449,0.492-0.784,1.158-1.255,1.674
			c-0.458,0.5-1.173,0.697-1.645,1.205c-0.462,0.502-0.87,1.074-1.341,1.57c-0.475,0.498-0.8,1.188-1.274,1.664
			c-0.488,0.489-0.966,0.983-1.451,1.438c-0.509,0.476-0.977,0.996-1.473,1.417c-0.535,0.452-1.105,0.819-1.619,1.188
			c-0.576,0.412-1.251,0.514-1.792,0.791c-0.636,0.33-1.168,0.901-1.735,1c-0.685,0.117-1.24-0.244-1.791-0.541
			c0.039-0.769,0.151-1.427,0.288-2.168c0.138-0.746,0.385-1.433,0.604-2.15c0.217-0.719,0.385-1.444,0.663-2.135
			c0.277-0.692,0.574-1.365,0.892-2.028c0.322-0.671,0.446-1.474,0.788-2.114c0.35-0.658,0.911-1.148,1.261-1.773
			c0.367-0.658,0.819-1.226,1.162-1.845c0.332-0.565,0.673-1.11,1.017-1.667c0.341-0.556,0.639-1.145,0.991-1.691
			c0.352-0.547,0.725-1.073,1.085-1.614s0.736-1.065,1.101-1.601c0.367-0.537,0.414-1.369,0.782-1.899
			c0.371-0.533,0.848-0.964,1.22-1.494s0.755-1.047,1.126-1.576c0.374-0.53,0.889-0.917,1.257-1.446
			c0.165-0.189-0.406-0.875-1.06-1.465c-0.408-0.365-0.808-0.91-1.26-1.177c-0.669-0.396-1.402-0.451-1.604-0.101
			c-0.367,0.492-0.693,1.033-1.068,1.537c-0.371,0.496-0.671,1.065-1.042,1.57c-0.369,0.502-0.636,1.102-1,1.61
			c-0.364,0.51-0.844,0.905-1.195,1.42c-0.356,0.521-0.727,0.831-1.063,1.353c-0.293-0.621-0.648-1.049-1.042-1.599
			c-0.389-0.541-0.989-0.823-1.46-1.292c-0.461-0.456-0.775-1.139-1.301-1.52c-0.516-0.373-1.134-0.529-1.699-0.825
			c-0.556-0.292-1.097-0.605-1.688-0.818c-0.583-0.211-1.178-0.346-1.782-0.476c-0.599-0.145-1.188-0.195-1.789-0.23
			c-0.606-0.035-1.202-0.088-1.805-0.021c-0.6,0.065-1.245-0.09-1.839,0.066c-0.587,0.155-1.095,0.665-1.67,0.9
			c-0.567,0.23-1.102,0.537-1.656,0.838c-0.545,0.295-1.023,0.716-1.55,1.07c-0.521,0.35-1.119,0.549-1.623,0.947
			c-0.5,0.396-1.001,0.785-1.479,1.221c-0.477,0.435-0.894,0.945-1.347,1.414c-0.453,0.469-0.899,0.937-1.326,1.432
			c-0.431,0.5-0.963,0.884-1.365,1.402c-0.409,0.529-0.83,1.043-1.205,1.586c-0.385,0.556-0.688,1.178-1.035,1.738
			c-0.36,0.584-0.547,1.281-0.862,1.86c-0.333,0.613-0.939,1.021-1.217,1.619c-0.081,0.188-0.116,0.401-0.138,0.621
			c-0.306,0.336-0.597,0.677-0.9,0.989c-0.472,0.494-1.091,0.766-1.533,1.244c-0.461,0.496-0.761,1.176-1.211,1.649
			c-0.462,0.487-0.952,0.949-1.425,1.403c-0.477,0.457-1.149,0.635-1.66,1.051c-0.5,0.406-0.939,0.955-1.491,1.313
			c-0.523,0.34-1.203,0.362-1.794,0.653c-0.547,0.269-0.976,0.599-1.595,0.819c0.491-0.487,0.679-1.135,1.123-1.639
			c0.461-0.525,1.225-0.694,1.634-1.234c0.427-0.564,0.853-1.135,1.223-1.709c0.387-0.602,0.738-1.238,1.065-1.848
			c0.34-0.639,0.77-1.235,1.045-1.877c0.29-0.675,0.34-1.477,0.557-2.146c0.229-0.706,0.138-1.5,0.286-2.193
			c0.159-0.732,0.197-1.435,0.268-2.143c0.072-0.751,0.157-1.441,0.133-2.154c-0.023-0.754-0.131-1.436-0.263-2.133
			c-0.138-0.734,0.163-1.627-0.087-2.285c-0.261-0.679-1.052-0.994-1.431-1.574c-0.381-0.582-0.603-1.311-1.102-1.773
			c-0.481-0.449-1.087-0.682-1.676-1.004c-0.567-0.31-1.099-0.629-1.665-0.842c-0.594-0.226-1.208-0.209-1.792-0.338
			c-0.615-0.137-1.167-0.639-1.76-0.684c-0.625-0.047-1.258-0.2-1.849-0.163c-0.628,0.04-1.19,0.623-1.771,0.738
			c-0.626,0.125-1.229,0.182-1.783,0.37c-0.625,0.211-1.228,0.354-1.746,0.613c-0.585,0.321-1.176,0.459-1.633,0.735
			c-0.604,0.365-0.965,0.978-1.376,1.269c-0.683,0.488-1.049,0.789-1.321,1.104c0.15-0.949-0.208-1.071,0.048-1.989
			c0.256-0.917,0.879-0.683,1.135-1.6c0.258-0.917,0.046-0.989,0.341-1.89c0.146-0.174-0.396-1.314-1.083-1.938
			c-0.601-0.542-1.577-0.845-1.968-0.392c-0.406,0.425-0.78,0.965-1.259,1.459c-0.42,0.435-0.849,0.916-1.319,1.398
			c-0.429,0.441-0.886,0.887-1.35,1.364c-0.433,0.446-0.844,0.955-1.303,1.429c-0.437,0.45-0.782,1.044-1.239,1.518
			c-0.437,0.453-1.047,0.705-1.5,1.177c-0.438,0.456-0.773,1.059-1.224,1.53c-0.439,0.459-1.065,0.691-1.513,1.164
			c-0.438,0.461-0.844,0.977-1.288,1.449c-0.439,0.465-0.772,1.069-1.215,1.543c-0.436,0.469-0.747,1.098-1.187,1.574
			c-0.434,0.473-1.104,0.658-1.54,1.137c-0.433,0.475-0.926,0.879-1.359,1.358c-0.433,0.479-0.443,1.468-0.872,1.95
			c-0.431,0.482-1.342,0.443-1.766,0.928c-0.279,0.484,2.347,1.232,2.485,1.232c0.417,0,1.846-0.428,2.127-0.914
			c0.498-0.553,1.159-0.865,1.586-1.327c0.511-0.554,0.955-1.071,1.382-1.517c0.524-0.551,0.957-1.082,1.385-1.511
			c0.532-0.532,1.274-0.622,1.718-1.053c0.502-0.486,0.847-1.108,1.335-1.587c0.449-0.443,1.008-0.795,1.526-1.342
			c0.422-0.442,0.587-1.303,1.099-1.877c0.413-0.461,1.106-0.787,1.602-1.363c-0.489,0.92-0.889,1.189-1.13,1.794
			c-0.168,0.426-0.293,1.017-0.73,1.961c-0.233,0.5-0.265,1.278-0.64,2.042c-0.267,0.539-0.521,1.193-0.879,1.898
			c-0.284,0.559-0.786,1.045-1.136,1.726c-0.292,0.567-0.606,1.185-0.951,1.845c-0.302,0.576-0.451,1.309-0.794,1.961
			c-0.305,0.579-0.722,1.123-1.063,1.766c-0.309,0.584-0.584,1.229-0.925,1.869c-0.312,0.584-0.619,1.209-0.957,1.844
			c-0.314,0.586-0.925,0.988-1.266,1.619c-0.316,0.588-0.757,1.115-1.095,1.744c-0.319,0.59-0.593,1.238-0.931,1.865
			c-0.32,0.592-0.526,1.291-0.867,1.917c-0.322,0.593-0.428,1.366-0.767,1.991c-0.31,0.572-1.076,0.844-1.408,1.457
			c-0.313,0.578-0.53,1.252-0.86,1.859c-0.314,0.586-0.362,1.383-0.69,1.992c-0.316,0.586-0.616,1.198-0.943,1.805
			c-0.316,0.59-0.557,1.246-0.879,1.85c-0.318,0.592-0.71,1.139-1.033,1.74c-0.32,0.594-0.939,0.977-1.262,1.574
			c-0.318,0.596-0.267,1.463-0.588,2.063c-0.322,0.596-1.024,0.918-1.344,1.514c-0.321,0.599-0.652,1.189-0.971,1.783
			c-0.321,0.596-0.733,1.127-1.053,1.719c-0.323,0.601-0.543,1.271-0.862,1.859c-0.325,0.602-0.641,1.201-0.96,1.789
			c-0.327,0.602-0.352,1.414-0.669,2c-0.328,0.604-0.942,0.984-1.261,1.566c-0.332,0.604-0.788,1.104-1.105,1.682
			c-0.335,0.607-0.673,1.189-0.99,1.762c-0.341,0.615-0.596,1.258-0.913,1.822c-0.346,0.621-0.703,1.188-1.019,1.74
			c-0.358,0.631-0.715,1.203-1.024,1.736c-0.157,0.303,0.676,0.764,1.275,1.287c0.399,0.35,0.744,0.852,1.197,1.09
			c0.675,0.354,1.173,0.553,1.328,0.188c0.336-0.601,0.9-1.032,1.237-1.639c0.333-0.603,0.493-1.334,0.827-1.941
			c0.333-0.604,0.876-1.057,1.209-1.664c0.331-0.604,0.547-1.297,0.879-1.903c0.33-0.605,0.589-1.269,0.917-1.877
			c0.329-0.605,0.547-1.297,0.877-1.908c0.328-0.607,0.5-1.33,0.829-1.941c0.328-0.609,0.844-1.084,1.169-1.695
			c0.326-0.61,0.9-1.045,1.226-1.658c0.326-0.612,0.487-1.34,0.813-1.952c0.325-0.611,0.341-1.443,0.664-2.058
			c0.325-0.613,1-0.975,1.323-1.588c0.323-0.613,0.434-1.375,0.756-1.986c0.321-0.612,0.715-1.174,1.035-1.784
			c0.322-0.613,0.607-1.253,0.925-1.865c0.322-0.612,0.606-1.252,0.924-1.862c0.32-0.615,0.714-1.177,1.031-1.787
			c0.32-0.615,0.927-1.025,1.245-1.636c0.32-0.616,0.3-1.471,0.618-2.082c0.32-0.616,0.59-1.268,0.908-1.877
			c0.319-0.616,0.517-1.317,0.833-1.93c0.32-0.617,0.847-1.084,1.165-1.695c0.32-0.616,0.669-1.208,0.988-1.819
			c0.32-0.617,0.553-1.289,0.868-1.897c0.32-0.617,0.835-1.285,1.149-1.894c0.013,0.785-0.028,1.67,0.146,2.307
			c0.197,0.719,0.47,1.412,0.845,1.958c0.383,0.557,0.949,0.944,1.483,1.339c0.505,0.372,1.157,0.396,1.765,0.641
			c0.564,0.229,1.046,0.953,1.675,1.084c0.594,0.125,1.278-0.467,1.914-0.418c0.609,0.047,1.215,0.793,1.843,0.778
			c0.618-0.015,1.213-0.657,1.833-0.719c0.623-0.063,1.292,0.372,1.896,0.271c0.628-0.105,1.252-0.229,1.843-0.367
			c0.633-0.15,1.197-0.572,1.764-0.748c0.65-0.199,1.294-0.043,1.824-0.26c0.645,0.021,1.232-0.232,1.845-0.273
			c0.641-0.043,1.224-0.5,1.833-0.606c0.63-0.11,1.353,0.349,1.952,0.175c0.618-0.18,1.239-0.422,1.825-0.66
			c0.595-0.242,1.068-0.862,1.639-1.16c0.572-0.301,1.172-0.535,1.725-0.885c0.549-0.348,1.218-0.49,1.75-0.881
			c0.527-0.388,0.776-1.269,1.292-1.693c0.509-0.418,1.001-0.854,1.503-1.301c0.44-0.394,1.014-0.598,1.481-0.964
			c-0.023,0.63-0.197,1.287-0.051,1.882c0.162,0.642,0.414,1.311,0.747,1.891c0.31,0.588,0.812,1.029,1.222,1.527
			c0.408,0.494,0.726,1.154,1.207,1.562c0.478,0.401,1.083,0.629,1.608,0.948c0.527,0.32,1.163,0.352,1.713,0.591
			c0.562,0.243,1.024,0.86,1.588,1.024c0.577,0.176,1.182,0.295,1.757,0.383c0.589,0.089,1.202-0.125,1.785-0.12
			c0.591,0.004,1.181,0.038,1.766-0.039c0.584-0.076,1.203-0.002,1.778-0.151c0.572-0.146,1.052-0.718,1.612-0.931
			c0.556-0.214,1.094-0.455,1.635-0.724c0.541-0.269,1.156-0.349,1.676-0.666c0.521-0.316,0.892-0.93,1.392-1.289
			c0.501-0.358,1.111-0.597,1.588-0.99c0.162,0.494,0.48,1.046,0.781,1.607c0.261,0.482,0.343,1.205,0.74,1.639
			c0.359,0.395,0.833,0.767,1.325,1.05c0.543,0.323,1.183,0.532,1.797,0.616c0.581,0.082,1.22-0.051,1.849-0.155
			c0.576-0.097,1.087-0.595,1.693-0.821c0.557-0.21,1.153-0.326,1.729-0.63c0.539-0.286,1.023-0.713,1.568-1.067
			c0.521-0.338,1.261-0.287,1.782-0.676c0.507-0.375,0.927-0.932,1.431-1.345c0.493-0.405,1.037-0.751,1.523-1.183
			c0.485-0.43,0.946-0.903,1.416-1.348c0.478-0.451,0.851-1.035,1.31-1.49c0.47-0.467,0.959-0.892,1.403-1.353
			c0.466-0.483,1.037-0.81,1.471-1.272c0.466-0.5,0.643-1.318,1.062-1.779c0.069-0.076,0.143-0.145,0.214-0.215
			c0.22,0.031,0.473,0.015,0.734-0.289c0.407-0.49,0.826-0.979,1.267-1.463c0.428-0.469,0.809-1.01,1.261-1.474
			c0.448-0.454,0.731-1.146,1.197-1.592c0.458-0.438,1.001-0.771,1.476-1.198c0.47-0.426,0.89-0.939,1.371-1.354
			c0.481-0.415,1.191-0.462,1.677-0.864c0.488-0.404,0.894-0.939,1.382-1.331c0.498-0.397,1.038-0.71,1.529-1.09
			c0.505-0.39,0.856-0.828,1.351-1.198c-0.371,0.578-0.648,1.128-1.043,1.719c-0.383,0.572-0.813,1.121-1.211,1.703
			c-0.392,0.572-0.916,1.033-1.311,1.615c-0.394,0.575-0.501,1.413-0.892,1.996c-0.388,0.583-0.877,1.075-1.254,1.665
			c-0.378,0.595-0.828,1.127-1.187,1.728c-0.365,0.612-0.66,1.271-0.991,1.887c-0.341,0.633-0.747,1.213-1.045,1.85
			c-0.308,0.659-0.597,1.321-0.846,1.982c-0.26,0.688-0.298,1.445-0.483,2.136c-0.131,0.704-0.521,1.411-0.514,2.119
			c0.01,0.755,0.146,1.603,0.506,2.188c0.349,0.563,0.833,1.225,1.355,1.709c0.523,0.487,1.234,0.785,1.863,0.866
			c0.614,0.121,1.236-0.19,1.851-0.219c0.611-0.025,1.215,0.037,1.828-0.116c0.593-0.148,1.126-0.509,1.716-0.763
			c0.567-0.242,1.114-0.517,1.681-0.843c0.542-0.312,1.141-0.508,1.681-0.885c0.521-0.361,1.2-0.475,1.718-0.886
			c0.503-0.399,0.778-1.188,1.277-1.625c0.49-0.426,1.067-0.728,1.556-1.181c0.48-0.446,0.987-0.859,1.462-1.322
			c0.473-0.461,1.002-0.85,1.469-1.316c0.47-0.471,0.811-1.108,1.274-1.578c0.47-0.476,0.968-0.902,1.429-1.369
			c0.473-0.477,0.88-1.026,1.345-1.484c0.48-0.473,0.987-0.891,1.455-1.333l0.148,0.185c0.116-0.133-0.01-0.268-0.249-0.395
			c0.178-0.253,0.35-0.499,0.551-0.695c0.478-0.473,0.985-0.826,1.4-1.231c0.488-0.476,0.872-0.998,1.286-1.394
			c0.496-0.478,0.946-0.9,1.354-1.281c0.51-0.474,1.024-0.797,1.439-1.168c0.506-0.449,1.079-0.654,1.523-1.027
			c0.471-0.395,0.772-1.027,1.27-1.432c0.441-0.356,0.971-0.639,1.503-1.076c0.276,0,1.248,0.172,1.388,0.172
			c-0.273,0.458-0.687,1.003-1.111,1.695c-0.323,0.528-0.575,1.205-0.955,1.84c-0.334,0.558-0.715,1.125-1.076,1.744
			c-0.335,0.578-0.625,1.217-0.968,1.832c-0.332,0.595-0.69,1.181-1.015,1.795c-0.321,0.611-0.773,1.137-1.077,1.754
			c-0.309,0.631-0.608,1.268-0.883,1.891c-0.29,0.656-0.332,1.427-0.567,2.059c-0.26,0.69-0.519,1.33-0.694,1.969
			c-0.202,0.744-0.464,1.41-0.523,2.051c-0.074,0.811,0.023,1.525,0.239,2.107c0.274,0.811,0.918,1.531,1.479,2.016
			c0.422,0.41,0.964,0.662,1.492,0.906c0.521,0.24,1.07,0.414,1.623,0.496c0.584,0.104,1.187,0.068,1.802-0.051
			c0.569-0.109,1.113-0.406,1.7-0.68c0.537-0.25,1.18-0.323,1.726-0.686c0.506-0.338,0.863-0.994,1.371-1.41
			c0.485-0.394,1.111-0.592,1.591-1.041c0.463-0.434,0.852-0.991,1.31-1.461c0.449-0.463,0.933-0.891,1.371-1.375
			c0.439-0.484,0.893-0.952,1.315-1.445c0.431-0.502,0.859-1,1.271-1.497c0.427-0.517,0.884-0.979,1.284-1.474
			c0.43-0.527,0.769-1.12,1.162-1.604c0.443-0.544,0.754-1.174,1.145-1.637c0.108-0.128,0.224-0.239,0.341-0.343
			c0.54-0.105,1.086-0.276,1.236-0.536c0.499-0.554,0.806-1.25,1.233-1.712c0.51-0.551,1.149-0.826,1.575-1.271
			c0.524-0.55,1.024-0.984,1.454-1.414c0.532-0.533,1.063-0.908,1.508-1.339c0.502-0.485,0.936-0.987,1.421-1.466
			c0.448-0.444,0.932-0.896,1.45-1.439c0.423-0.445,0.746-1.107,1.261-1.683c0.412-0.46,0.814-0.92,1.312-1.498
			c-0.49,0.92-0.795,1.142-1.034,1.746c-0.17,0.426-0.254,1.035-0.693,1.979c-0.231,0.5-0.18,1.332-0.556,2.096
			c-0.266,0.539-0.492,1.213-0.85,1.918c-0.282,0.559-0.916,0.957-1.266,1.636c-0.293,0.567-0.323,1.383-0.668,2.044
			c-0.3,0.575-0.978,0.936-1.319,1.588c-0.306,0.579-0.547,1.247-0.889,1.891c-0.308,0.584-0.466,1.313-0.808,1.953
			c-0.31,0.584-0.887,1.014-1.229,1.647c-0.313,0.586-0.771,1.099-1.112,1.729c-0.316,0.588-0.386,1.383-0.727,2.013
			c-0.316,0.591-0.7,1.159-1.04,1.786c-0.318,0.592-0.757,1.123-1.095,1.748c-0.321,0.595-0.458,1.345-0.799,1.968
			c-0.309,0.573-0.579,1.209-0.911,1.821c-0.313,0.578-0.959,0.938-1.289,1.547c-0.314,0.584-0.429,1.332-0.757,1.941
			c-0.316,0.588-0.688,1.146-1.015,1.752c-0.316,0.59-0.618,1.203-0.942,1.807c-0.318,0.593-0.371,1.386-0.694,1.986
			c-0.317,0.594-0.987,0.938-1.311,1.539c-0.318,0.594-0.333,1.416-0.654,2.014c-0.321,0.597-0.899,1.009-1.221,1.604
			c-0.317,0.599-0.808,1.072-1.127,1.668c-0.323,0.599-0.495,1.302-0.814,1.894c-0.323,0.598-0.823,1.063-1.142,1.654
			c-0.324,0.602-0.266,1.475-0.586,2.063c-0.326,0.604-0.755,1.119-1.075,1.705c-0.328,0.604-0.429,1.361-0.745,1.943
			c-0.333,0.604-0.913,1.012-1.23,1.59c-0.335,0.608-0.399,1.396-0.717,1.969c-0.34,0.615-0.857,1.064-1.173,1.631
			c-0.344,0.619-0.89,1.047-1.203,1.6c-0.358,0.631-0.336,1.488-0.646,2.021c-0.158,0.305,0.152,0.528,0.75,1.053
			c0.399,0.351,0.875,0.588,1.326,0.826c0.676,0.354,1.06,0.676,1.217,0.313c0.335-0.603,1.072-0.91,1.407-1.517
			c0.333-0.603,0.186-1.563,0.521-2.17c0.334-0.604,0.946-1.002,1.279-1.61c0.33-0.604,0.32-1.46,0.653-2.068
			c0.33-0.605,0.776-1.127,1.108-1.736c0.328-0.607,1.093-0.9,1.418-1.512c0.328-0.609,0.609-1.254,0.938-1.865
			c0.328-0.609,0.218-1.537,0.544-2.148c0.326-0.61,0.918-1.031,1.243-1.645c0.327-0.611,0.844-1.088,1.168-1.699
			c0.324-0.613,0.608-1.256,0.934-1.867c0.323-0.613,0.36-1.43,0.684-2.043c0.322-0.613,0.976-0.99,1.297-1.604
			c0.321-0.614,0.323-1.451,0.644-2.063c0.321-0.613,0.651-1.224,0.971-1.835c0.319-0.612,0.526-1.307,0.847-1.915
			c0.319-0.615,0.589-1.265,0.907-1.875c0.319-0.615,0.584-1.267,0.901-1.875c0.32-0.617,1.079-0.925,1.397-1.537
			c0.319-0.617,0.57-1.279,0.889-1.894c0.319-0.615,0.238-1.511,0.555-2.12c0.32-0.617,0.778-1.134,1.096-1.745
			c0.32-0.616,0.786-1.128,1.101-1.737c0.318-0.617,0.477-1.345,0.793-1.953c0.319-0.617,0.714-0.91,1.028-1.519
			c0.012,0.784-0.027,1.364,0.146,2c0.197,0.72,0.647,1.327,1.024,1.873c0.383,0.558,0.953,0.897,1.49,1.293
			c0.503,0.373,1.038,0.724,1.646,0.968c0.564,0.227,1.132,0.625,1.762,0.758c0.595,0.123,1.224,0.387,1.857,0.434
			c0.609,0.047,1.254-0.26,1.882-0.271c0.618-0.014,1.243-0.043,1.861-0.104c0.623-0.063,1.23-0.267,1.835-0.367
			c0.628-0.104,1.279,0.021,1.87-0.12c0.633-0.148,1.147-0.769,1.716-0.941c0.649-0.201,1.283-0.338,1.813-0.555
			c0.645,0.021,1.291,0.145,1.902,0.104c0.64-0.043,1.239-0.287,1.849-0.395c0.63-0.109,1.209-0.336,1.811-0.511
			c0.616-0.179,1.299-0.032,1.885-0.272c0.596-0.241,1.103-0.719,1.671-1.019c0.572-0.3,1.081-0.714,1.633-1.063
			c0.549-0.349,1.233-0.424,1.766-0.814c0.528-0.388,1.112-0.697,1.628-1.121c0.508-0.419,0.732-1.29,1.231-1.738
			c0.495-0.441,1.118-0.692,1.607-1.158c0.484-0.457,1.221-0.573,1.704-1.049c0.477-0.468,0.701-1.287,1.181-1.767
			c0.209-0.209,0.434-0.399,0.659-0.59c0.184,0.058,0.385,0.065,0.619-0.203c0.405-0.49,0.848-0.953,1.291-1.438
			c0.426-0.47,0.894-0.897,1.348-1.361c0.447-0.454,0.788-1.061,1.253-1.506c0.458-0.438,0.993-0.774,1.466-1.203
			c0.472-0.426,0.823-1.04,1.304-1.455c0.481-0.415,0.94-0.871,1.425-1.271c0.487-0.406,1.093-0.621,1.582-1.012
			c0.496-0.396,1.086-0.624,1.578-1.003c0.505-0.39,0.764-0.812,1.257-1.181c-0.37,0.578-0.739,0.922-1.137,1.513
			c-0.382,0.571-0.816,1.112-1.217,1.694c-0.391,0.572-0.777,1.158-1.175,1.74c-0.392,0.574-0.649,1.28-1.038,1.863
			s-0.882,1.077-1.259,1.667c-0.38,0.595-0.749,1.203-1.107,1.804c-0.365,0.611-0.605,1.316-0.938,1.934
			c-0.342,0.633-0.451,1.404-0.749,2.042c-0.309,0.659-0.795,1.192-1.044,1.854c-0.259,0.688-0.513,1.37-0.696,2.061
			c-0.135,0.703-0.126,1.459-0.119,2.167c0.011,0.755-0.084,1.608,0.276,2.196c0.348,0.563,0.925,1.092,1.447,1.578
			c0.523,0.487,1.138,0.977,1.768,1.059c0.614,0.121,1.245-0.188,1.861-0.215c0.611-0.025,1.256,0.199,1.868,0.043
			c0.593-0.148,1.195-0.383,1.786-0.637c0.567-0.242,1.085-0.68,1.649-1.004c0.542-0.313,1.132-0.56,1.672-0.936
			c0.521-0.362,0.98-0.869,1.496-1.28c0.504-0.399,1.022-0.792,1.521-1.228c0.49-0.426,0.905-0.976,1.389-1.428
			c0.481-0.447,1.096-0.707,1.57-1.172c0.444-0.434,0.821-0.963,1.252-1.414c0.091,0.617,0.229,1.202,0.431,1.77
			c0.228,0.637,0.437,1.289,0.779,1.853c0.341,0.558,0.734,1.091,1.167,1.571c0.426,0.471,1.007,0.723,1.503,1.115
			c0.485,0.386,0.95,0.807,1.485,1.113c0.532,0.305,1.04,0.688,1.602,0.91c0.566,0.223,1.183,0.206,1.76,0.34
			c0.594,0.137,1.168,0.2,1.748,0.236c0.624,0.043,1.251,0.405,1.877,0.355c0.62-0.047,1.201-0.514,1.82-0.642
			c0.607-0.125,1.267-0.026,1.874-0.222c0.595-0.191,1.202-0.403,1.796-0.655c0.581-0.245,1.137-0.593,1.714-0.89
			c0.565-0.292,1.051-0.792,1.61-1.126c0.555-0.329,1.254-0.353,1.801-0.716c0.54-0.359,1.09-0.723,1.622-1.111
			c0.525-0.385,0.99-0.896,1.511-1.303c0.52-0.407,1.063-0.771,1.571-1.194c0.511-0.424,1.025-0.84,1.523-1.274
			c0.504-0.438,0.862-1.09,1.35-1.533c0.496-0.45,1.062-0.789,1.545-1.237c0.493-0.461,0.916-1.007,1.392-1.458
			c0.493-0.468,0.924-1.001,1.396-1.451c0.496-0.474,1.036-0.854,1.506-1.299l0.056,0.082
			C295.678,40.205,294.851,40.129,293.817,40.047z M267.314,36.946c0.39-0.548,0.792-1.069,1.198-1.582
			c0.413-0.524,0.697-1.19,1.126-1.675c0.438-0.496,0.945-0.906,1.399-1.357c0.464-0.463,1.008-0.801,1.49-1.215
			c0.49-0.421,0.896-0.984,1.404-1.354c0.518-0.375,1.044-0.747,1.579-1.066c0.54-0.32,1.222-0.279,1.781-0.541
			s1.024-0.854,1.607-1.052c0.577-0.197,1.224-0.104,1.82-0.237c0.591-0.131,1.183-0.215,1.792-0.281
			c0.594-0.063,1.185-0.178,1.799-0.178c0.188,0.822,0.388,1.584,0.284,2.249c-0.115,0.765-0.685,1.284-1.092,1.866
			c-0.391,0.557-0.863,0.984-1.434,1.402c-0.528,0.385-1.047,0.822-1.661,1.109c-0.596,0.278-1.227,0.451-1.843,0.656
			c-0.644,0.213-1.276,0.369-1.873,0.523c-0.704,0.181-1.307,0.584-1.848,0.715c-0.628,0.164-1.287,0.187-1.919,0.353
			c-0.628,0.165-1.235,0.444-1.865,0.617c-0.627,0.172-1.234,0.44-1.862,0.625c-0.625,0.185-1.271,0.272-1.893,0.474L267.314,36.946
			z M79.477,44.152l0.037,0.053c-0.417,0.51-0.701,1.157-1.13,1.635c-0.439,0.49-0.641,1.277-1.089,1.729
			c-0.458,0.465-1.19,0.544-1.658,0.966c-0.48,0.436-0.821,1.079-1.31,1.465c-0.505,0.397-1.065,0.689-1.577,1.03
			c-0.528,0.354-1.052,0.724-1.585,1.011c-0.556,0.297-1.109,0.608-1.67,0.83c-0.576,0.228-1.192,0.32-1.771,0.459
			c-0.594,0.144-1.22-0.152-1.813-0.109c-0.599,0.044-1.199,0.496-1.796,0.43c-0.593-0.064-1.219-0.125-1.808-0.303
			c-0.65-0.188-1.35-0.458-1.761-0.885c-0.468-0.486-0.657-1.34-0.871-1.959c-0.243-0.701-0.311-1.47-0.311-2.08
			c0-0.719-0.045-1.465,0.056-2.176c0.1-0.703,0.27-1.422,0.459-2.113c0.186-0.676,0.625-1.254,0.888-1.916
			c0.258-0.644,0.588-1.24,0.912-1.863c0.315-0.609,0.557-1.278,0.928-1.863c0.363-0.574,0.557-1.331,0.964-1.879
			c0.403-0.54,1.186-0.679,1.625-1.189c0.438-0.508,0.493-1.496,0.961-1.972c0.464-0.475,1.347-0.368,1.834-0.808
			c0.493-0.442,0.687-1.354,1.195-1.756c0.515-0.409,1.282-0.356,1.808-0.723c0.538-0.375,1.07-0.713,1.612-1.039
			c0.559-0.336,1.016-0.879,1.57-1.16c0.583-0.295,1.266-0.203,1.835-0.432c0.604-0.242,1.121-0.677,1.698-0.838
			c0.63-0.176,1.195-0.68,1.777-0.75c0.66-0.08,1.274,0.523,1.849,0.589c0.664,0.076,1.147,0.183,1.668,0.472
			c0.514,0.43,1.097,0.602,1.417,1.123c0.35,0.567,0.512,1.223,0.662,1.873c0.148,0.645-0.032,1.295-0.051,1.994
			c-0.018,0.658,0.38,1.396,0.241,2.082c-0.133,0.644-0.316,1.327-0.537,1.977c-0.212,0.623-0.724,1.111-0.998,1.724
			c-0.27,0.601-0.231,1.427-0.544,2.003c-0.314,0.58-0.835,1.018-1.178,1.557c-0.357,0.562-0.653,1.174-1.022,1.675
			C80.597,43.555,79.867,43.699,79.477,44.152z M116.876,42.387l0.185,0.172c-0.381,0.517-1.031,0.756-1.439,1.252
			c-0.405,0.492-0.533,1.314-0.962,1.785c-0.429,0.468-1.164,0.539-1.614,0.979c-0.449,0.44-0.685,1.196-1.158,1.604
			c-0.473,0.406-1.137,0.492-1.633,0.863c-0.494,0.37-0.991,0.711-1.508,1.041c-0.517,0.329-0.962,0.799-1.498,1.082
			c-0.535,0.284-1.16,0.299-1.709,0.532c-0.552,0.233-1.057,0.603-1.626,0.782c-0.565,0.179-1.094,0.593-1.674,0.713
			c-0.575,0.12-1.203-0.221-1.794-0.162c-0.636,0.046-1.193,0.096-1.716,0.074c-0.65-0.027-1.229,0.12-1.704-0.153
			c-0.485-0.278-0.832-0.771-1.134-1.473c-0.246-0.614-0.217-1.271-0.271-1.943c-0.055-0.661-0.371-1.339-0.283-2.012
			c0.086-0.665,0.231-1.353,0.413-1.986c0.19-0.657,0.609-1.202,0.858-1.778c0.246-0.655,0.279-1.457,0.586-2.103
			c0.111-0.235,0.247-0.457,0.388-0.676c0.041-0.032,0.088-0.054,0.125-0.089l-0.028-0.059c0.209-0.315,0.429-0.627,0.617-0.961
			c0.341-0.6,0.654-1.244,1.039-1.824c0.38-0.571,1.023-0.895,1.44-1.44c0.414-0.541,0.823-1.074,1.271-1.586
			c0.445-0.509,0.894-0.997,1.369-1.472s0.895-1.013,1.395-1.446c0.501-0.437,0.85-1.14,1.375-1.531
			c0.528-0.396,1.142-0.646,1.689-0.989c0.554-0.348,1.082-0.787,1.649-1.076c0.579-0.293,1.314-0.101,1.901-0.326
			c0.599-0.231,1.146-0.6,1.75-0.754c0.641-0.159,1.37-0.201,2.106-0.252c0.729-0.049,1.426-0.051,2.083,0.149
			c0.71,0.216,1.394,0.47,1.83,1.147c0.455,0.611,0.755,1.262,0.995,1.882c0.272,0.707,0.242,1.43,0.284,2.141
			c0.044,0.731,0.367,1.505,0.221,2.233c-0.14,0.699-0.498,1.373-0.765,2.063c-0.254,0.659-0.648,1.26-0.973,1.904
			c-0.32,0.635-0.599,1.307-0.946,1.919C117.657,41.24,117.213,41.789,116.876,42.387z M221.314,44.465l-0.14-0.158
			c-0.417,0.51-0.995,0.813-1.422,1.292c-0.438,0.489-0.838,0.989-1.284,1.442c-0.457,0.463-0.703,1.203-1.169,1.625
			c-0.482,0.436-1.187,0.478-1.674,0.862c-0.505,0.397-0.805,1.129-1.314,1.47c-0.53,0.354-1.07,0.668-1.605,0.955
			c-0.554,0.297-1.072,0.703-1.631,0.924c-0.577,0.228-1.164,0.486-1.741,0.625c-0.595,0.144-1.219,0.315-1.812,0.358
			c-0.601,0.043-1.199-0.56-1.795-0.625c-0.595-0.065-1.172-0.088-1.759-0.267c-0.65-0.188-1.426-0.09-1.838-0.518
			c-0.468-0.486-0.729-1.301-0.942-1.919c-0.244-0.7-0.184-1.5-0.184-2.11c0-0.72-0.133-1.471-0.032-2.181
			c0.099-0.704,0.619-1.298,0.809-1.987c0.187-0.678,0.437-1.304,0.701-1.963c0.258-0.645,0.412-1.342,0.735-1.965
			c0.316-0.609,0.532-1.305,0.903-1.891c0.364-0.574,0.791-1.105,1.2-1.653c0.405-0.54,0.965-0.907,1.407-1.418
			c0.438-0.506,0.983-0.854,1.45-1.331c0.466-0.474,0.761-1.171,1.248-1.609c0.491-0.442,0.994-0.855,1.505-1.258
			c0.517-0.41,0.982-0.897,1.51-1.264c0.536-0.375,1.183-0.5,1.725-0.826c0.558-0.337,0.95-1.066,1.505-1.348
			c0.582-0.294,1.2-0.486,1.767-0.713c0.607-0.243,1.241-0.321,1.818-0.482c0.632-0.176,1.234-0.47,1.814-0.541
			c0.658-0.08,1.323-0.179,1.896-0.113c0.667,0.076,1.212,0.612,1.732,0.899c0.511,0.431,1.062,0.761,1.383,1.281
			c0.349,0.569,0.7,1.208,0.85,1.858c0.148,0.646-0.083,1.388-0.101,2.088c-0.018,0.656-0.203,1.289-0.345,1.973
			c-0.132,0.645,0.131,1.466-0.09,2.115c-0.21,0.623-0.664,1.16-0.94,1.771c-0.271,0.602-0.902,0.954-1.215,1.53
			c-0.316,0.58-0.323,1.389-0.667,1.93c-0.356,0.56-0.804,1.021-1.171,1.522C222,43.392,221.705,44.012,221.314,44.465z"/>
	</g>
</g>
</svg>
